<?xml version="1.0" standalone="no"?>
<!DOCTYPE svg PUBLIC "-//W3C//DTD SVG 20010904//EN"
 "http://www.w3.org/TR/2001/REC-SVG-20010904/DTD/svg10.dtd">
<svg version="1.0" xmlns="http://www.w3.org/2000/svg"
 width="512.000000pt" height="512.000000pt" viewBox="0 0 512.000000 512.000000"
 preserveAspectRatio="xMidYMid meet">
<metadata>
Created by potrace 1.14, written by Peter Selinger 2001-2017
</metadata>
<g transform="translate(0.000000,512.000000) scale(0.100000,-0.100000)"
fill="#000000" stroke="none">
<path d="M235 5024 c-55 -20 -121 -88 -140 -143 -19 -57 -22 -411 -3 -475 26
-86 136 -166 228 -166 81 0 182 62 210 130 l12 30 129 0 129 0 0 -1651 c0
-1042 4 -1657 10 -1668 15 -29 361 -221 397 -221 59 0 97 86 55 128 -9 9 -81
53 -159 97 l-143 80 0 1778 0 1777 160 0 160 0 0 -295 0 -296 25 -24 24 -25
271 0 271 0 24 25 25 24 0 296 0 295 160 0 160 0 0 -295 0 -296 25 -24 24 -25
271 0 271 0 24 25 25 24 0 296 0 295 160 0 160 0 0 -295 0 -296 25 -24 24 -25
271 0 271 0 24 25 25 24 0 296 0 295 160 0 160 0 0 -1777 -1 -1778 -779 -445
c-429 -245 -791 -449 -804 -454 -20 -8 -93 31 -525 278 -541 309 -549 312
-590 260 -27 -34 -27 -67 2 -98 29 -33 1071 -626 1098 -626 26 0 1716 963
1742 992 16 19 17 113 17 1674 l0 1654 129 0 129 0 12 -30 c28 -68 129 -130
210 -130 92 0 202 80 228 166 16 56 16 412 0 468 -26 86 -136 166 -228 166
-81 0 -182 -62 -210 -130 l-12 -30 -2018 0 -2018 0 -12 30 c-17 42 -90 104
-138 118 -51 16 -107 14 -157 -4z m118 -155 c14 -6 30 -22 36 -36 15 -33 15
-354 0 -387 -26 -55 -112 -55 -138 0 -15 33 -15 354 0 388 18 40 60 54 102 35z
m4480 0 c14 -6 30 -22 36 -36 15 -33 15 -354 0 -387 -26 -55 -112 -55 -138 0
-15 33 -15 354 0 388 18 40 60 54 102 35z m-4033 -229 l0 -80 -120 0 -120 0 0
80 0 80 120 0 120 0 0 -80z m960 0 l0 -80 -160 0 -160 0 0 80 0 80 160 0 160
0 0 -80z m960 0 l0 -80 -160 0 -160 0 0 80 0 80 160 0 160 0 0 -80z m960 0 l0
-80 -160 0 -160 0 0 80 0 80 160 0 160 0 0 -80z m880 0 l0 -80 -120 0 -120 0
0 80 0 80 120 0 120 0 0 -80z m-2800 -320 l0 -80 -160 0 -160 0 0 80 0 80 160
0 160 0 0 -80z m960 0 l0 -80 -160 0 -160 0 0 80 0 80 160 0 160 0 0 -80z
m960 0 l0 -80 -160 0 -160 0 0 80 0 80 160 0 160 0 0 -80z"/>
<path d="M1145 3895 l-25 -24 0 -1269 c0 -1195 1 -1271 18 -1290 26 -31 1397
-832 1423 -832 28 0 1416 816 1429 840 6 12 10 478 10 1285 l0 1266 -25 24
c-24 25 -26 25 -215 25 -189 0 -191 0 -215 -25 -33 -32 -33 -78 0 -110 23 -24
29 -25 160 -25 l135 0 0 -520 0 -520 -480 0 -480 0 0 520 0 520 215 0 c216 0
216 0 240 25 16 15 25 36 25 55 0 19 -9 40 -25 55 l-24 25 -1071 0 -1071 0
-24 -25z m1095 -655 l0 -520 -480 0 -480 0 0 520 0 520 480 0 480 0 0 -520z
m0 -1779 l0 -619 -480 281 -480 282 0 338 0 337 480 0 480 0 0 -619z m1600
282 l0 -338 -298 -175 c-163 -96 -379 -222 -479 -281 l-183 -108 0 620 0 619
480 0 480 0 0 -337z"/>
<path d="M1705 3415 c-21 -20 -25 -34 -25 -80 l0 -55 -55 0 c-67 0 -105 -29
-105 -80 0 -51 38 -80 105 -80 l55 0 0 -55 c0 -67 29 -105 80 -105 51 0 80 38
80 105 l0 55 55 0 c67 0 105 29 105 80 0 51 -38 80 -105 80 l-55 0 0 55 c0 67
-29 105 -80 105 -19 0 -40 -9 -55 -25z"/>
<path d="M1705 1815 c-21 -20 -25 -34 -25 -80 l0 -55 -55 0 c-67 0 -105 -29
-105 -80 0 -51 38 -80 105 -80 l55 0 0 -55 c0 -67 29 -105 80 -105 51 0 80 38
80 105 l0 55 55 0 c67 0 105 29 105 80 0 51 -38 80 -105 80 l-55 0 0 55 c0 67
-29 105 -80 105 -19 0 -40 -9 -55 -25z"/>
<path d="M3305 1815 c-21 -20 -25 -34 -25 -80 l0 -55 -55 0 c-67 0 -105 -29
-105 -80 0 -51 38 -80 105 -80 l55 0 0 -55 c0 -67 29 -105 80 -105 51 0 80 38
80 105 l0 55 55 0 c67 0 105 29 105 80 0 51 -38 80 -105 80 l-55 0 0 55 c0 67
-29 105 -80 105 -19 0 -40 -9 -55 -25z"/>
<path d="M3305 3415 c-21 -20 -25 -34 -25 -80 l0 -55 -55 0 c-67 0 -105 -29
-105 -80 0 -51 38 -80 105 -80 l55 0 0 -55 c0 -67 29 -105 80 -105 51 0 80 38
80 105 l0 55 55 0 c67 0 105 29 105 80 0 51 -38 80 -105 80 l-55 0 0 55 c0 67
-29 105 -80 105 -19 0 -40 -9 -55 -25z"/>
</g>
</svg>
